<svg width="48" height="48" viewBox="0 0 48 48" fill="none" xmlns="http://www.w3.org/2000/svg">
<g clip-path="url(#clip0_17023_17457)">
<path fill-rule="evenodd" clip-rule="evenodd" d="M10.7 5H37.3C40.448 5 43 7.55198 43 10.7V37.3C43 40.448 40.448 43 37.3 43H10.7C7.55198 43 5 40.448 5 37.3V10.7C5 7.55198 7.55198 5 10.7 5ZM10.7891 29.1953V32.6836H14.2773V36.9141H18.5078V32.6836H24V38.1758C26.8037 38.1758 29.5444 37.3444 31.8756 35.7867C34.2068 34.2291 36.0238 32.0151 37.0967 29.4248C38.1696 26.8346 38.4504 23.9843 37.9034 21.2344C37.3564 18.4846 36.0063 15.9587 34.0238 13.9762C32.0413 11.9937 29.5154 10.6436 26.7656 10.0966C24.0157 9.54963 21.1654 9.83036 18.5752 10.9033C15.9849 11.9762 13.7709 13.7932 12.2133 16.1244C10.6556 18.4556 9.82422 21.1963 9.82422 24H15.3164C15.3164 22.2826 15.8257 20.6037 16.7799 19.1757C17.734 17.7477 19.0902 16.6347 20.6769 15.9774C22.2637 15.3202 24.0096 15.1482 25.6941 15.4833C27.3785 15.8183 28.9258 16.6454 30.1402 17.8598C31.3547 19.0742 32.1817 20.6215 32.5167 22.3059C32.8518 23.9904 32.6798 25.7364 32.0226 27.3231C31.3654 28.9098 30.2524 30.266 28.8243 31.2202C27.3963 32.1743 25.7175 32.6836 24 32.6836V27.2656H18.5078V32.6836H14.2773V29.1953H10.7891Z" fill="#080D10"/>
</g>
<defs>
<clipPath id="clip0_17023_17457">
<rect width="38" height="38" fill="white" transform="translate(5 5)"/>
</clipPath>
</defs>
</svg>
