<svg width="48" height="48" viewBox="0 0 48 48" fill="none" xmlns="http://www.w3.org/2000/svg">
<path fill-rule="evenodd" clip-rule="evenodd" d="M24.001 34.9113C35.9469 34.9113 45.631 30.0063 45.631 23.9557C45.631 17.905 35.9469 13 24.001 13C12.0552 13 2.37109 17.905 2.37109 23.9557C2.37109 30.0063 12.0552 34.9113 24.001 34.9113ZM21.4143 15.5661H23.9817L23.3662 18.7138H25.6523C27.0943 18.7138 28.0791 18.96 28.6242 19.47C29.1694 19.98 29.3277 20.7889 29.1166 21.9144L28.0439 27.4361H25.4413L26.4612 22.1781C26.5843 21.5802 26.5316 21.1758 26.3382 20.9647C26.1447 20.7537 25.7051 20.6306 25.0544 20.6306H22.9969L21.678 27.4361H19.1106L21.4143 15.5661ZM14.6439 20.5955C15.6287 20.5955 16.2793 20.7713 16.6135 21.1406C16.9476 21.5099 17.0179 22.1254 16.8421 23.0046C16.6662 23.9191 16.3145 24.5873 15.8045 24.9742C15.2946 25.3611 14.5208 25.5545 13.4833 25.5545H11.9182L12.8854 20.5955H14.6439ZM8.34836 30.5839H10.9334L11.5489 27.4361H13.7646C14.7494 27.4361 15.5408 27.3306 16.1738 27.1196C16.8069 26.9086 17.3696 26.5745 17.8972 26.0821C18.3368 25.6776 18.6885 25.238 18.9523 24.7632C19.2161 24.2884 19.4095 23.7608 19.515 23.1805C19.7964 21.7737 19.5854 20.6834 18.8996 19.892C18.2137 19.1007 17.1234 18.7138 15.6287 18.7138H10.652L8.34836 30.5839ZM36.7838 21.1406C36.4497 20.7713 35.7991 20.5955 34.8143 20.5955H33.0557L32.0886 25.5545H33.6536C34.6912 25.5545 35.4649 25.3611 35.9749 24.9742C36.4849 24.5873 36.8366 23.9191 37.0124 23.0046C37.1883 22.1254 37.118 21.5099 36.7838 21.1406ZM31.1038 30.5839H28.5187L30.8224 18.7138H35.7991C37.2938 18.7138 38.3841 19.1007 39.0699 19.892C39.7558 20.6834 39.9668 21.7737 39.6854 23.1805C39.5799 23.7608 39.3865 24.2884 39.1227 24.7632C38.8589 25.238 38.5072 25.6776 38.0676 26.0821C37.54 26.5745 36.9773 26.9086 36.3442 27.1196C35.7111 27.3306 34.9198 27.4361 33.935 27.4361H31.7193L31.1038 30.5839Z" fill="#080D10"/>
</svg>
