<svg width="48" height="48" viewBox="0 0 48 48" fill="none" xmlns="http://www.w3.org/2000/svg">
<path d="M9.69322 42.8885C11.6067 42.8885 13.1579 41.3373 13.1579 39.4238C13.1579 37.5103 11.6067 35.959 9.69322 35.959C7.77972 35.959 6.22852 37.5103 6.22852 39.4238C6.22852 41.3373 7.77972 42.8885 9.69322 42.8885Z" fill="#080D10"/>
<path d="M27.827 14.8353C24.4182 14.8353 21.0652 16.2882 18.4946 19.1662V5H13.4373V28.8618C13.4373 36.6015 19.724 42.8882 27.4638 42.8882C35.2035 42.8882 41.4902 36.6015 41.4902 28.8618C41.4902 21.1221 35.5667 14.8353 27.827 14.8353ZM27.4638 37.4956C22.6858 37.4956 18.8299 33.6397 18.8299 28.8618C18.8299 24.1118 22.6858 20.2279 27.4638 20.2279C32.2417 20.2279 36.0976 24.0838 36.0976 28.8618C36.0976 33.6118 32.2417 37.4956 27.4638 37.4956Z" fill="#080D10"/>
</svg>
