<svg width="120" height="120" viewBox="0 0 120 120" fill="none" xmlns="http://www.w3.org/2000/svg">
<g clip-path="url(#clip0_2170_23074)">
<path d="M60 120C93.1371 120 120 93.1371 120 60C120 26.8629 93.1371 0 60 0C26.8629 0 0 26.8629 0 60C0 93.1371 26.8629 120 60 120Z" fill="#F0F0F0"/>
<path d="M119.999 59.9995C119.999 36.2119 106.156 15.6581 86.0859 5.95312V114.046C106.156 104.341 119.999 83.7872 119.999 59.9995Z" fill="#D80027"/>
<path d="M0 59.9995C0 83.7872 13.8434 104.341 33.9131 114.046V5.95312C13.8434 15.6581 0 36.2119 0 59.9995Z" fill="#D80027"/>
<path d="M70.4332 67.8252L80.8678 62.6077L75.6506 59.9991V54.7817L65.2158 59.9991L70.4332 49.5643H65.2158L59.9984 41.7383L54.7809 49.5643H49.5635L54.7809 59.9991L44.3461 54.7817V59.9991L39.1289 62.6077L49.5635 67.8252L46.9549 73.0426H57.3898V80.8686H62.607V73.0426H73.0418L70.4332 67.8252Z" fill="#D80027"/>
</g>
<defs>
<clipPath id="clip0_2170_23074">
<rect width="120" height="120" fill="white"/>
</clipPath>
</defs>
</svg>
