<svg width="240" height="240" viewBox="0 0 240 240" fill="none" xmlns="http://www.w3.org/2000/svg">
<g clip-path="url(#clip0_18716_25348)">
<path d="M132.858 49.2963C143.207 47.6853 210.393 52.9814 221.18 72.6724C201.487 109.18 171.411 149.976 143.908 180.412C142.536 160.494 130.038 145.723 90.6719 140.761L132.858 49.2963Z" fill="white"/>
<path d="M143.908 182.081C143.485 182.081 143.077 181.921 142.767 181.632C142.458 181.344 142.269 180.948 142.24 180.526C141.218 165.693 134.409 147.957 90.4625 142.417C90.2019 142.384 89.9527 142.291 89.7351 142.144C89.5175 141.997 89.3377 141.801 89.2102 141.571C89.0827 141.342 89.0111 141.086 89.0012 140.823C88.9913 140.561 89.0434 140.3 89.1533 140.062L131.34 48.5974C131.455 48.3473 131.63 48.1296 131.85 47.9636C132.07 47.7976 132.328 47.6886 132.601 47.6462C138.136 46.7844 157.765 47.7781 177.158 51.3537C194.538 54.5581 216.538 60.7186 222.647 71.8704C222.781 72.1145 222.852 72.3882 222.852 72.6664C222.853 72.9447 222.785 73.2188 222.652 73.4638C213.241 90.9111 200.853 110.39 186.829 129.796C173.58 148.127 159.168 166.017 145.15 181.53C144.993 181.704 144.801 181.842 144.587 181.937C144.374 182.032 144.142 182.081 143.908 182.081L143.908 182.081ZM93.1387 139.403C111.091 141.9 124.017 146.582 132.605 153.692C139.641 159.518 143.773 167.006 145.17 176.502C173.334 144.871 201.464 105.485 219.259 72.7115C214.427 65.2359 199.34 58.8397 176.551 54.638C158.713 51.3491 140.217 50.2488 133.986 50.8401L93.1387 139.403Z" fill="#080D10"/>
<path d="M142.46 63.3525C186.319 63.3525 215.985 77.5773 211.742 95.8209C206.949 116.426 158.604 186.357 132.86 199.053C142.46 185.941 129.222 163.167 101.188 151.392L142.46 63.3525Z" fill="white"/>
<path d="M132.86 200.723C132.551 200.723 132.249 200.638 131.985 200.477C131.722 200.315 131.509 200.084 131.369 199.809C131.229 199.534 131.168 199.226 131.193 198.919C131.218 198.611 131.328 198.317 131.51 198.068C134.332 194.213 135.024 189.296 133.511 183.849C130.2 171.929 117.565 160.082 100.539 152.931C100.332 152.844 100.144 152.716 99.9872 152.554C99.8305 152.393 99.7081 152.201 99.6272 151.991C99.5464 151.782 99.5088 151.558 99.5167 151.333C99.5246 151.108 99.5778 150.887 99.6732 150.684L140.946 62.6444C141.08 62.3569 141.294 62.1138 141.562 61.9435C141.83 61.7731 142.142 61.6826 142.459 61.6826C174.272 61.6826 200.037 69.2312 209.701 81.3826C213.302 85.9111 214.571 91.0345 213.37 96.1985C210.963 106.545 198.158 128.725 181.505 151.391C172.659 163.431 150.283 192.323 133.6 200.55C133.37 200.664 133.117 200.723 132.86 200.723ZM103.432 150.542C120.572 158.149 133.261 170.46 136.732 182.955C137.905 187.177 137.94 191.16 136.865 194.727C147.878 187.182 163.094 170.805 178.809 149.415C194.963 127.429 207.835 105.235 210.113 95.4428C211.089 91.2468 210.07 87.2152 207.083 83.4595C202.793 78.0654 194.7 73.4908 183.678 70.2301C172.425 66.9012 158.561 65.1055 143.521 65.0249L103.432 150.542Z" fill="#080D10"/>
<path d="M211.739 95.8203C205.905 115.176 177.773 115.385 177.773 115.385C177.564 136.01 167.423 166.404 159.312 176.199C181.311 151.702 201.32 126.624 211.739 95.8206V95.8203Z" fill="#080D10"/>
<path d="M159.312 177.869C158.995 177.869 158.684 177.778 158.416 177.609C158.149 177.439 157.935 177.196 157.8 176.91C157.665 176.623 157.614 176.304 157.654 175.99C157.694 175.676 157.822 175.379 158.024 175.135C165.821 165.718 175.896 135.69 176.101 115.368C176.106 114.93 176.282 114.512 176.592 114.203C176.903 113.894 177.322 113.719 177.76 113.715C177.828 113.715 184.698 113.629 192.137 111.246C201.133 108.364 206.995 103.552 209.59 96.9281C209.781 96.3819 209.97 95.8347 210.156 95.2863C210.297 94.8724 210.595 94.5304 210.986 94.3338C211.377 94.1371 211.829 94.1014 212.246 94.2344C212.663 94.3674 213.012 94.6585 213.216 95.0451C213.421 95.4317 213.465 95.8829 213.34 96.3019C213.164 96.8855 212.966 97.4621 212.746 98.0303C202.628 126.829 184.535 150.613 160.557 177.314C160.4 177.489 160.208 177.628 159.994 177.724C159.779 177.82 159.547 177.869 159.312 177.868L159.312 177.869ZM179.41 116.988C178.937 131.621 174.022 150.085 168.362 163.345C183.978 145.028 196.468 127.609 205.071 108.284C201.844 110.865 197.824 112.94 193.076 114.452C187.313 116.287 181.992 116.828 179.41 116.988Z" fill="#080D10"/>
<path d="M197.779 102.401C197.358 102.4 196.954 102.242 196.645 101.957C196.337 101.672 196.147 101.281 196.114 100.863C195.727 95.9762 193.391 91.77 189.17 88.3609C188.998 88.2235 188.854 88.0534 188.748 87.8605C188.642 87.6677 188.575 87.4557 188.552 87.2369C188.528 87.0182 188.548 86.7968 188.61 86.5857C188.672 86.3746 188.775 86.1778 188.914 86.0067C189.052 85.8356 189.223 85.6935 189.417 85.5887C189.611 85.4838 189.823 85.4183 190.043 85.3958C190.262 85.3732 190.483 85.3942 190.694 85.4575C190.905 85.5208 191.102 85.6251 191.272 85.7645C196.234 89.7725 198.985 94.7635 199.447 100.599C199.465 100.829 199.435 101.06 199.36 101.278C199.284 101.496 199.164 101.695 199.008 101.865C198.851 102.034 198.661 102.169 198.449 102.261C198.238 102.353 198.009 102.401 197.779 102.401ZM181.735 83.8147C181.513 83.8146 181.292 83.77 181.087 83.6836C173.327 80.4214 162.55 78.5504 151.519 78.5504C151.076 78.5504 150.651 78.3745 150.337 78.0613C150.024 77.7482 149.848 77.3235 149.848 76.8807C149.848 76.4378 150.024 76.0131 150.337 75.7C150.651 75.3869 151.076 75.2109 151.519 75.2109C162.979 75.2109 174.229 77.1771 182.384 80.6055C182.74 80.755 183.034 81.0229 183.214 81.3638C183.395 81.7047 183.452 82.0975 183.375 82.4756C183.299 82.8536 183.093 83.1935 182.794 83.4376C182.496 83.6817 182.121 83.8149 181.735 83.8145V83.8147ZM183.608 111.227C183.199 111.226 182.804 111.076 182.499 110.804C182.193 110.533 181.998 110.158 181.95 109.753C181.523 106.141 178.189 102.7 172.56 100.064C166.738 97.3385 159.265 95.8374 151.519 95.8374C151.076 95.8374 150.651 95.6615 150.337 95.3484C150.024 95.0352 149.847 94.6105 149.847 94.1677C149.847 93.7249 150.024 93.3002 150.337 92.987C150.651 92.6739 151.076 92.498 151.519 92.498C159.746 92.498 167.722 94.1114 173.979 97.0408C180.693 100.185 184.704 104.56 185.27 109.362C185.298 109.596 185.276 109.834 185.205 110.059C185.134 110.284 185.016 110.491 184.859 110.668C184.702 110.844 184.509 110.985 184.293 111.081C184.078 111.178 183.844 111.227 183.608 111.227L183.608 111.227ZM169.857 132.872C169.414 132.872 168.988 132.696 168.675 132.383C168.361 132.07 168.185 131.646 168.185 131.203C168.185 119.778 157.166 113.226 137.952 113.226C137.509 113.226 137.084 113.05 136.77 112.737C136.457 112.423 136.28 111.999 136.28 111.556C136.28 111.113 136.457 110.688 136.77 110.375C137.084 110.062 137.509 109.886 137.952 109.886C148.342 109.886 156.557 111.699 162.37 115.275C168.362 118.961 171.529 124.468 171.529 131.202C171.529 131.645 171.353 132.07 171.039 132.383C170.726 132.696 170.3 132.872 169.857 132.872V132.872ZM161.312 154.102C160.886 154.101 160.477 153.939 160.167 153.648C159.858 153.357 159.671 152.959 159.645 152.535C159.264 146.36 156.013 141.012 150.242 137.07C144.2 132.942 135.993 130.76 126.508 130.76C126.064 130.76 125.639 130.584 125.326 130.271C125.012 129.958 124.836 129.533 124.836 129.09C124.836 128.647 125.012 128.223 125.326 127.91C125.639 127.596 126.064 127.421 126.508 127.421C136.67 127.421 145.53 129.804 152.13 134.314C158.688 138.794 162.542 145.192 162.982 152.329C162.996 152.557 162.963 152.785 162.885 153C162.808 153.214 162.687 153.41 162.531 153.576C162.374 153.742 162.185 153.875 161.975 153.965C161.766 154.055 161.54 154.102 161.312 154.102Z" fill="#080D10"/>
</g>
<g clip-path="url(#clip1_18716_25348)">
<path d="M46.8724 163.063C39.9395 165.286 31.094 166.601 29.2054 170.163C25.715 176.737 32.0742 198.706 41.2544 196.889C46.9441 195.766 55.6223 191.821 55.6223 191.821C67.5517 198.874 101.188 192.252 105.492 186.18C113.811 174.466 104.416 125.77 88.3027 135.739C77.5686 142.384 57.0328 155.317 46.8724 163.063Z" fill="white"/>
<path d="M40.133 198.658C36.7143 198.658 34.0846 196.172 32.4111 193.925C27.3907 187.16 24.9522 174.537 27.7015 169.374C29.4467 166.075 35.0409 164.569 40.9458 163.015C42.6671 162.561 44.4362 162.083 46.0857 161.557C56.772 153.453 78.5032 139.826 87.3965 134.304C91.7236 131.627 96.1702 132.368 99.9475 136.384C109.558 146.616 113.742 177.454 106.833 187.136C105.566 188.905 102.625 190.602 98.0828 192.18C93.9947 193.59 88.8787 194.786 83.6431 195.551C77.9773 196.387 72.4787 196.674 67.7213 196.411C62.6053 196.124 58.4933 195.192 55.505 193.662C53.2099 194.666 46.4204 197.535 41.5435 198.515C41.0893 198.611 40.6111 198.658 40.133 198.658ZM92.5842 136.073C91.4845 136.073 90.3609 136.432 89.1895 137.173C80.2723 142.695 58.3738 156.417 47.9027 164.401C47.7592 164.521 47.568 164.617 47.4006 164.664C45.6076 165.238 43.6951 165.74 41.8304 166.242C37.1207 167.509 31.7656 168.944 30.6898 170.952C29.7336 172.745 29.6619 176.426 30.4747 180.562C31.3353 184.936 33.0805 189.168 35.1365 191.941C36.4514 193.71 38.5312 195.718 40.9458 195.24C46.3726 194.164 54.8595 190.315 54.9551 190.291C55.4572 190.076 56.0309 190.1 56.5091 190.363C61.4338 193.28 71.4268 193.973 83.2128 192.252C88.2571 191.511 93.158 190.363 97.0548 189.024C102.458 187.16 103.868 185.63 104.179 185.199C106.833 181.47 107.669 172.529 106.331 162.441C104.92 152.042 101.573 142.934 97.5807 138.679C95.8834 136.934 94.2577 136.073 92.5842 136.073Z" fill="#080D10"/>
<path d="M106.762 160.625C111.567 159.453 124.524 158.665 124.524 169.35C124.524 180.036 118.739 186.132 106.833 187.925C96.8402 189.431 97.8443 179.056 104.729 176.164C111.615 173.271 110.419 170.833 110.419 170.833" fill="white"/>
<path d="M104.924 189.766C99.7125 189.766 98.326 186.395 97.9913 185.247C96.8676 181.279 99.593 176.522 104.064 174.633C108.223 172.888 108.749 171.573 108.797 171.334C108.558 170.569 108.917 169.709 109.658 169.35C110.494 168.944 111.499 169.278 111.905 170.115C112.024 170.378 112.407 171.287 111.905 172.577C111.188 174.466 108.988 176.187 105.355 177.717C102.199 179.032 100.621 182.259 101.219 184.339C101.506 185.319 102.557 186.897 106.574 186.275C117.666 184.602 122.854 179.223 122.854 169.35C122.854 166.864 122.065 165.023 120.44 163.756C117.069 161.103 110.662 161.413 107.171 162.25C106.263 162.465 105.378 161.916 105.139 161.007C104.924 160.099 105.474 159.214 106.383 158.975C110.208 158.043 117.882 157.469 122.52 161.103C124.958 163.015 126.201 165.788 126.201 169.326C126.201 180.849 119.77 187.662 107.076 189.551C106.287 189.694 105.57 189.766 104.924 189.766Z" fill="#080D10"/>
<path d="M105.995 151.23C110.8 150.058 123.662 146.831 123.662 157.517C123.662 168.203 119.956 173.581 108.266 176.522C98.4642 178.984 98.4403 167.844 105.039 164.306C111.613 160.768 110.178 158.306 110.178 158.306" fill="white"/>
<path d="M105.64 178.553C101.241 178.553 99.6873 175.589 99.2809 174.513C97.7031 170.473 99.9981 165.118 104.253 162.823C107.911 160.863 108.652 159.357 108.652 158.951C108.318 158.186 108.604 157.277 109.346 156.847C110.135 156.393 111.163 156.656 111.641 157.445C111.784 157.708 112.238 158.64 111.856 160.026C111.306 162.011 109.274 163.947 105.855 165.788C102.747 167.461 101.552 171.095 102.413 173.318C103.321 175.661 106.238 175.326 107.887 174.92C118.454 172.266 122.016 167.868 122.016 157.54C122.016 155.365 121.418 153.859 120.223 152.903C116.948 150.321 109.68 152.09 106.572 152.855L106.405 152.903C105.497 153.118 104.612 152.568 104.373 151.659C104.158 150.751 104.708 149.866 105.616 149.627L105.784 149.58C109.656 148.647 117.737 146.687 122.279 150.249C124.311 151.851 125.363 154.313 125.363 157.516C125.363 169.35 120.701 175.111 108.7 178.147C107.553 178.434 106.549 178.553 105.64 178.553Z" fill="#080D10"/>
<path d="M88.3047 135.739C95.7875 131.723 112.044 128.017 116.347 140.353C120.674 152.688 114.985 159.214 111.614 162.131C108.243 165.047 100.115 161.103 103.103 153.286C106.091 145.469 104.011 146.544 104.011 146.544" fill="white"/>
<path d="M108.821 164.785C107.291 164.785 105.689 164.283 104.279 163.303C101.697 161.51 99.6171 157.78 101.554 152.712C102.581 149.987 102.916 148.577 103.012 147.907C102.821 147.764 102.653 147.573 102.534 147.334C102.103 146.521 102.438 145.493 103.251 145.086C103.896 144.752 104.877 144.704 105.594 145.373C106.861 146.497 106.622 148.816 104.661 153.908C103.155 157.9 105.211 159.884 106.191 160.577C107.674 161.605 109.538 161.749 110.519 160.888C116.232 155.916 117.667 149.198 114.774 140.927C113.698 137.843 111.666 135.691 108.773 134.568C102.534 132.129 93.5687 134.831 89.0742 137.221C88.2614 137.652 87.2573 137.341 86.8031 136.528C86.3728 135.715 86.6835 134.687 87.4964 134.257C93.5209 131.03 103.131 128.759 109.969 131.436C113.818 132.942 116.495 135.763 117.906 139.803C121.253 149.389 119.46 157.541 112.694 163.398C111.69 164.331 110.279 164.785 108.821 164.785Z" fill="#080D10"/>
<path d="M65.6875 159.716C69.8951 157.469 93.5627 144.058 97.9376 140.831C104.99 135.572 109.843 141.261 104.106 150.489C98.3918 159.716 91.172 163.135 91.172 163.135C94.6146 172.315 81.705 184.124 69.7277 181.614" fill="white"/>
<path d="M73.0743 183.623C71.8551 183.623 70.6358 183.503 69.3927 183.24C68.4842 183.049 67.9105 182.164 68.1017 181.256C68.293 180.347 69.1775 179.774 70.086 179.965C76.8038 181.375 83.3781 177.813 86.9163 173.678C89.7612 170.355 90.7414 166.721 89.6177 163.685C89.307 162.872 89.6895 161.964 90.4784 161.581C90.5501 161.558 97.3396 158.235 102.695 149.581C105.301 145.373 105.444 142.027 104.225 140.927C103.245 140.018 101.165 140.497 98.9413 142.146C94.423 145.493 70.4446 159.047 66.5 161.175C65.6872 161.605 64.6592 161.295 64.2289 160.482C63.7985 159.669 64.1093 158.641 64.9222 158.211C69.56 155.725 92.8212 142.529 96.9571 139.445C99.802 137.317 103.794 135.954 106.52 138.441C109.245 140.951 108.863 145.995 105.564 151.326C101.021 158.641 95.6183 162.442 93.2037 163.9C94.0644 167.749 92.7495 172.028 89.4982 175.829C85.9122 179.989 79.7682 183.623 73.0743 183.623Z" fill="#080D10"/>
</g>
<g clip-path="url(#clip2_18716_25348)">
<path d="M84.9375 169.921L112.07 122.144L119.305 126.247L92.1726 174.024L84.9375 169.921Z" fill="#080D10"/>
<path d="M92.1704 175.698C91.8811 175.698 91.5967 175.622 91.3453 175.479L84.1102 171.377C83.9189 171.268 83.7508 171.123 83.6155 170.95C83.4803 170.776 83.3805 170.578 83.322 170.366C83.2635 170.154 83.2474 169.933 83.2745 169.715C83.3017 169.497 83.3716 169.286 83.4802 169.095L110.613 121.317C110.832 120.931 111.196 120.648 111.624 120.53C112.052 120.412 112.51 120.469 112.896 120.688L120.131 124.79C120.322 124.899 120.491 125.044 120.626 125.217C120.761 125.391 120.861 125.589 120.919 125.801C120.978 126.013 120.994 126.234 120.967 126.452C120.94 126.67 120.87 126.881 120.761 127.072L93.6285 174.85C93.4823 175.107 93.2703 175.322 93.0141 175.471C92.7579 175.62 92.4668 175.698 92.1704 175.698ZM87.2202 169.291L91.5418 171.742L117.021 126.876L112.699 124.425L87.2202 169.291Z" fill="#080D10"/>
<path d="M94.3632 96.101C83.3879 127.462 141.495 151.77 155.332 111.017C166.595 77.8441 108.509 55.6789 94.3632 96.101Z" fill="#003a99"/>
<path d="M127.747 134.705C124.064 134.705 120.321 134.046 116.694 132.742C111.286 130.799 106.524 127.577 102.924 123.424C99.8932 119.928 97.8002 115.835 96.8714 111.587C95.847 106.903 96.1844 102.08 97.8747 97.2506C101.363 87.2835 107.463 80.0757 115.516 76.4066C122.57 73.1924 130.701 72.8832 138.408 75.5365C152.087 80.2452 162.839 94.1295 156.922 111.556C152.698 123.998 144.378 132.023 133.496 134.153C131.602 134.522 129.677 134.707 127.747 134.705ZM99.4556 97.8031L101.036 98.3557C98.1781 106.524 99.7473 114.648 105.456 121.232C112.104 128.902 123.114 132.774 132.852 130.868C142.505 128.979 149.927 121.739 153.749 110.481C158.963 95.1259 149.429 82.8711 137.317 78.7018C124.256 74.2057 107.972 78.539 101.036 98.3559L99.4553 97.8034L99.4556 97.8031Z" fill="#080D10"/>
<path d="M106.145 99.3407C97.7956 123.199 138.13 140.397 148.656 109.394C157.225 84.1574 116.907 68.5895 106.145 99.3407Z" fill="white"/>
<path d="M127.753 127.803C120.583 127.804 113.235 124.576 108.483 119.094C103.492 113.338 102.064 105.936 104.566 98.788C107.256 91.0999 111.971 85.5364 118.198 82.6987C123.659 80.2106 129.95 79.9703 135.911 82.0225C146.505 85.6691 154.83 96.4269 150.244 109.932C146.983 119.539 140.546 125.738 132.12 127.387C130.689 127.667 129.224 127.803 127.753 127.803H127.753ZM127.712 83.9798C119.77 83.9798 111.702 88.5381 107.728 99.8932C105.603 105.966 106.77 112.007 111.015 116.903C115.982 122.632 124.204 125.525 131.477 124.102C138.674 122.694 144.213 117.279 147.072 108.857C150.954 97.423 143.847 88.2952 134.82 85.1878C132.543 84.404 130.133 83.98 127.712 83.98L127.712 83.9798Z" fill="#080D10"/>
<path d="M120.828 103.405C117.245 113.643 134.554 121.023 139.072 107.719C142.749 96.8892 125.447 90.2083 120.828 103.405Z" fill="#003a99"/>
<path d="M132.873 114.925C129.525 114.925 126.177 113.439 123.935 110.852C121.562 108.116 120.884 104.596 122.074 101.197C124.828 93.3289 131.606 91.6473 136.739 93.4142C141.733 95.1332 145.653 100.215 143.485 106.602C141.97 111.063 138.951 113.947 134.985 114.723C134.289 114.859 133.582 114.926 132.873 114.926L132.873 114.925ZM125.236 102.302C124.164 105.363 125.547 107.6 126.467 108.66C128.381 110.868 131.546 111.985 134.341 111.438C136.278 111.059 138.886 109.725 140.312 105.526C141.845 101.01 138.969 97.7222 135.648 96.579C131.913 95.2934 127.244 96.5637 125.236 102.302Z" fill="#080D10"/>
<path d="M130.15 115.394C127.967 115.394 125.758 115.172 123.562 114.715C114.537 112.839 107.442 107.318 104.582 99.9462C104.455 99.6201 104.434 99.2627 104.522 98.924C104.609 98.5853 104.8 98.2825 105.068 98.058C112.456 91.8779 123.479 89.6535 133.835 92.2525C142.142 94.3373 148.584 99.2748 151.069 105.46C151.19 105.763 151.221 106.095 151.156 106.415C151.091 106.735 150.935 107.029 150.705 107.261C145.513 112.505 138.012 115.395 130.15 115.395V115.394ZM108.187 99.8575C110.903 105.605 116.812 109.893 124.244 111.438C132.842 113.226 141.638 111.028 147.502 105.694C145.13 100.971 139.809 97.2032 133.019 95.4991C124.131 93.2685 114.744 94.9415 108.187 99.8575Z" fill="#080D10"/>
<path d="M132.778 106.669C134.338 106.669 135.603 105.405 135.603 103.846C135.603 102.287 134.338 101.023 132.778 101.023C131.218 101.023 129.953 102.287 129.953 103.846C129.953 105.405 131.218 106.669 132.778 106.669Z" fill="#080D10"/>
</g>
<g clip-path="url(#clip3_18716_25348)">
<path d="M65.1719 160.34C69.3294 158.096 92.7802 144.726 97.0953 141.488C104.074 136.251 108.879 141.914 103.21 151.127C97.5408 160.34 90.4137 163.737 90.4137 163.737C93.8288 172.908 81.037 184.674 69.1807 182.184" fill="white"/>
<path d="M72.4963 184.196C71.2933 184.196 70.0737 184.077 68.8477 183.819C68.4175 183.729 68.0405 183.47 67.7997 183.1C67.5588 182.729 67.4739 182.278 67.5635 181.844C67.6532 181.411 67.9101 181.031 68.2777 180.788C68.6453 180.545 69.0936 180.46 69.5238 180.55C76.1721 181.946 82.6887 178.408 86.1976 174.284C89.0169 170.969 89.99 167.339 88.8673 164.324C88.7212 163.932 88.7268 163.499 88.883 163.111C89.0391 162.722 89.3344 162.408 89.7102 162.228C89.7739 162.198 96.4922 158.884 101.807 150.248C104.394 146.043 104.53 142.717 103.327 141.603C102.346 140.696 100.291 141.177 98.0901 142.828C93.6246 146.178 69.8689 159.701 65.9591 161.812C65.5717 162.021 65.1177 162.067 64.697 161.939C64.2764 161.81 63.9234 161.519 63.7159 161.129C63.5084 160.738 63.4633 160.281 63.5904 159.857C63.7176 159.433 64.0067 159.078 64.3941 158.868C68.9758 156.395 92.0223 143.217 96.1104 140.149C100.404 136.928 103.811 137.518 105.568 139.144C108.266 141.64 107.895 146.69 104.623 152.007C100.132 159.305 94.7796 163.107 92.3845 164.551C93.2402 168.397 91.9451 172.658 88.7137 176.457C85.2076 180.579 79.1176 184.196 72.4963 184.196Z" fill="#080D10"/>
</g>
<g clip-path="url(#clip4_18716_25348)">
<path d="M62.0396 88.8014C30.3939 104.546 0.117203 69.717 33.0703 46.1421C62.4523 25.122 102.663 57.8685 77.1587 80.0745C76.9639 79.6941 78.6381 86.1352 82.7864 89.5642C82.7864 89.5642 74.5668 91.3107 68.0502 87.6338" fill="white"/>
<path d="M46.0076 94.4327C42.7668 94.4327 39.9472 93.9674 37.6623 93.3701C30.3021 91.4459 24.0211 86.9059 20.4296 80.9141C17.19 75.5086 16.313 69.2022 17.9607 63.1566C19.7903 56.4435 24.6792 50.0892 32.0993 44.7808C40.3378 38.8872 50.2787 36.5696 60.0912 38.255C68.8888 39.766 76.8158 44.2908 81.8395 50.6688C87.9243 58.394 90.2813 70.2377 79.0318 80.637C79.6126 82.3645 81.1914 86.0777 83.8482 88.2739C84.0904 88.474 84.2714 88.7385 84.3702 89.0371C84.4691 89.3356 84.4819 89.656 84.4071 89.9614C84.3323 90.2669 84.173 90.545 83.9475 90.7638C83.7219 90.9827 83.4393 91.1333 83.1321 91.1985C82.7714 91.2752 74.2158 93.0308 67.2304 89.0892C66.8447 88.8716 66.5611 88.5094 66.442 88.0824C66.3229 87.6553 66.3781 87.1984 66.5954 86.8121C66.8127 86.4257 67.1743 86.1417 67.6007 86.0224C68.0271 85.9032 68.4833 85.9584 68.869 86.1761C72.3778 88.1559 76.5152 88.3998 79.2919 88.2727C78.2606 86.9071 77.4852 85.4875 76.9456 84.3429C76.5351 83.4749 76.1745 82.5841 75.8654 81.675C75.4297 80.3815 75.4052 80.0292 75.5504 79.5623C75.6685 79.1831 75.9172 78.8582 76.2521 78.6455C84.8797 71.0091 85.9935 61.3406 79.2187 52.7392C70.1187 41.1866 50.258 35.899 34.0398 47.5015C18.6915 58.4817 18.4242 71.0719 23.2919 79.1931C29.339 89.2822 44.7138 95.5535 61.2963 87.3031C61.6928 87.1059 62.1512 87.0744 62.5708 87.2157C62.9904 87.357 63.3368 87.6595 63.5337 88.0566C63.7306 88.4536 63.762 88.9128 63.6209 89.3331C63.4798 89.7533 63.1778 90.1002 62.7814 90.2974C56.5178 93.4136 50.8021 94.4324 46.0074 94.4324L46.0076 94.4327Z" fill="#080D10"/>
<path d="M51.064 73.7195C50.638 73.7191 50.2283 73.5556 49.9188 73.2625C49.6093 72.9694 49.4234 72.5689 49.3991 72.143C49.1564 67.8872 51.909 66.5605 53.9192 65.5916C56.0607 64.5594 57.6082 63.8136 57.6032 60.1985C57.5994 57.3395 56.1508 55.9823 54.9362 55.347C53.0655 54.3686 50.5935 54.4956 48.9251 55.6558C47.9686 56.321 46.8906 57.6128 47.1872 59.9888C47.2144 60.2067 47.1985 60.4277 47.1404 60.6394C47.0823 60.8511 46.9831 61.0492 46.8485 61.2225C46.7139 61.3958 46.5466 61.5409 46.356 61.6494C46.1655 61.7579 45.9555 61.8277 45.738 61.855C45.5204 61.8822 45.2997 61.8662 45.0884 61.808C44.877 61.7498 44.6792 61.6505 44.5062 61.5157C44.3331 61.3809 44.1883 61.2133 44.08 61.0224C43.9716 60.8316 43.9019 60.6212 43.8747 60.4034C43.4875 57.3009 44.6342 54.5694 47.0208 52.9094C49.7081 51.0403 53.5102 50.829 56.4813 52.383C59.311 53.863 60.9368 56.71 60.9415 60.1937C60.9492 65.9135 57.7227 67.4687 55.3668 68.6041C53.3235 69.589 52.6225 70.0275 52.7322 71.9519C52.7452 72.1793 52.7116 72.4069 52.6337 72.6208C52.5557 72.8347 52.4349 73.0304 52.2787 73.1959C52.1226 73.3614 51.9343 73.4931 51.7254 73.5831C51.5166 73.6731 51.2916 73.7194 51.0642 73.7192L51.064 73.7195Z" fill="#080D10"/>
<path d="M51.141 80.7514C52.2846 80.7514 53.2117 79.8229 53.2117 78.6775C53.2117 77.5321 52.2846 76.6035 51.141 76.6035C49.9974 76.6035 49.0703 77.5321 49.0703 78.6775C49.0703 79.8229 49.9974 80.7514 51.141 80.7514Z" fill="#080D10"/>
</g>
<defs>
<clipPath id="clip0_18716_25348">
<rect width="133.852" height="153.367" fill="white" transform="translate(89 47.3564)"/>
</clipPath>
<clipPath id="clip1_18716_25348">
<rect width="100.791" height="68.4182" fill="white" transform="translate(26.5547 130.24)"/>
</clipPath>
<clipPath id="clip2_18716_25348">
<rect width="75.3059" height="101.939" fill="white" transform="translate(83.2617 73.7588)"/>
</clipPath>
<clipPath id="clip3_18716_25348">
<rect width="43.8519" height="46.3774" fill="white" transform="translate(63.5195 137.815)"/>
</clipPath>
<clipPath id="clip4_18716_25348">
<rect width="69.7957" height="56.709" fill="white" transform="translate(17.1406 37.7139)"/>
</clipPath>
</defs>
</svg>
