<svg width="48" height="48" viewBox="0 0 48 48" fill="none" xmlns="http://www.w3.org/2000/svg">
<path d="M43 43H5V5H43V43ZM35.5518 22.4609C34.8961 22.29 33.329 22.2332 32.6641 22.3662C30.6122 22.7462 29.1782 24.0758 28.7695 25.9756C28.6366 26.517 28.6838 27.8657 28.8262 28.417C29.0162 29.0535 29.4246 29.8234 29.8711 30.3174C30.6501 31.1344 31.4858 31.667 33.4521 32.5029C35.1619 33.2628 35.7702 33.6045 36.0742 34.0225C36.2927 34.3549 36.3593 34.5544 36.3594 34.9912C36.3594 35.4662 36.2079 35.8088 35.8564 36.1318C35.0395 36.8728 33.3863 36.9577 32.1514 36.3213C31.7429 36.0933 31.0391 35.4286 30.7256 34.9346L30.4795 34.6016L29.4053 35.2285L27.9805 36.0557L27.6191 36.2832C27.5812 36.3497 28.2559 37.3659 28.6074 37.7461C29.5003 38.7245 30.9538 39.4845 32.4736 39.7695C33.186 39.893 34.7058 39.9127 35.3711 39.7988C37.4895 39.4473 38.972 38.3735 39.5801 36.7871C40.1216 35.3336 39.9413 33.3952 39.1338 32.1602C38.4213 31.0582 37.2432 30.2885 34.5264 29.1201C33.0541 28.4742 32.5788 28.161 32.3223 27.6387C32.2083 27.3917 32.1514 27.22 32.1514 26.916C32.1516 25.9189 32.9111 25.3206 34.0508 25.3965C34.8393 25.4535 35.3429 25.7579 35.8369 26.4609C35.9883 26.7069 36.1401 26.8679 36.1787 26.8408C37.175 26.224 38.8165 25.1141 38.8203 25.0547C38.7823 24.8837 38.2597 24.2189 37.9082 23.8389C37.2432 23.1454 36.5022 22.7075 35.5332 22.4795L35.5518 22.4609ZM13.3604 22.5176V24.0762L13.332 24.0664V25.6152H18.2715V39.6748H21.7773V25.6152H26.7168V24.0947C26.7168 23.2398 26.7167 22.5463 26.6787 22.5273C26.6588 22.4991 23.6551 22.4893 20.0098 22.4893L13.3604 22.5176Z" fill="#080D10"/>
</svg>
